<svg fill="none" height="32" viewBox="0 0 32 32" width="32" xmlns="http://www.w3.org/2000/svg" xmlns:xlink="http://www.w3.org/1999/xlink"><clipPath id="a"><path d="m0 0h32v32h-32z"/></clipPath><g clip-path="url(#a)"><path d="m31 6v5 5 5 5 5h-19c6.07 0 11-4.93 11-11s-4.93-11-11-11c-1.77 0-3.44.42-4.92 1.16l-.08-.16v-9h24z" fill="#668077"/><path d="m12 9c6.07 0 11 4.93 11 11s-4.93 11-11 11-11-4.93-11-11c0-4.3 2.48-8.03 6.08-9.84 1.48-.74 3.15-1.16 4.92-1.16z" fill="#ffc44d"/><path d="m15 17c0-1.657-1.343-3-3-3m0 0c-1.657 0-3 1.343-3 3s1.343 3 3 3 3 1.343 3 3-1.343 3-3 3m0-12v-1m0 13c-1.657 0-3-1.343-3-3m3 3v1m10 4h9v-2m-6-3h6v-2m-5-3h5v-2m-5-3h5v-2m-8-3h8v-2m-21-3h21v-5h-24v5m16 14c0-6.074-4.926-11-11-11s-11 4.926-11 11 4.926 11 11 11 11-4.926 11-11z" stroke="#000" stroke-linecap="round" stroke-linejoin="round" stroke-width="2"/></g></svg>